<svg width="211" height="24" viewBox="0 0 211 24" fill="none" xmlns="http://www.w3.org/2000/svg">
<path d="M169.263 3.53684C166.906 1.17895 164.127 0 160.842 0C157.474 0 154.695 1.17895 152.421 3.53684C151.411 4.54737 150.569 5.72632 149.979 6.90526C149.39 5.72632 148.548 4.54737 147.537 3.53684C145.179 1.17895 142.4 0 139.116 0C135.748 0 132.969 1.17895 130.695 3.53684C128.337 5.89474 127.158 8.67368 127.158 11.9579C127.158 15.2421 128.337 18.1053 130.695 20.3789C133.053 22.7368 135.832 23.9158 139.116 23.9158C142.4 23.9158 145.263 22.7368 147.537 20.3789C148.548 19.3684 149.39 18.2737 149.979 17.0105C150.569 18.1895 151.327 19.3684 152.421 20.3789C154.779 22.7368 157.558 23.9158 160.842 23.9158C164.127 23.9158 166.99 22.7368 169.263 20.3789C171.621 18.1053 172.8 15.2421 172.8 11.9579C172.885 8.67368 171.706 5.89474 169.263 3.53684ZM144.674 17.6842C143.074 19.2 141.221 19.9579 139.032 19.9579C136.842 19.9579 134.99 19.2 133.39 17.6842C131.874 16.0842 131.116 14.2316 131.116 12.0421C131.116 9.85263 131.874 8 133.39 6.4C134.99 4.8 136.842 4.04211 139.032 4.04211C141.221 4.04211 143.074 4.8 144.674 6.4C146.274 8 147.032 9.85263 147.032 12.0421C147.032 14.1474 146.274 16.0842 144.674 17.6842ZM166.485 17.6842C164.885 19.2 163.032 19.9579 160.842 19.9579C158.653 19.9579 156.8 19.2 155.2 17.6842C153.685 16.0842 152.927 14.2316 152.927 12.0421C152.927 9.85263 153.685 8 155.2 6.4C156.8 4.8 158.653 4.04211 160.842 4.04211C163.032 4.04211 164.885 4.8 166.485 6.4C168.085 8 168.842 9.85263 168.842 12.0421C168.842 14.1474 168 16.0842 166.485 17.6842Z" fill="#99CCEE"/>
<path d="M178.105 4.04211H168.253V0H186.274L175.495 19.9579H185.6V24H167.242L178.105 4.04211Z" fill="#4A8BBC"/>
<path d="M83.5368 3.53684C81.1789 1.17895 78.4 0 75.0316 0C71.6632 0 68.8842 1.17895 66.6105 3.53684C65.6 4.54737 64.8421 5.64211 64.2526 6.82105V0L52.2947 11.9579L40.3368 0V6.73684C39.7474 5.55789 38.9895 4.46316 37.9789 3.53684C35.621 1.17895 32.7579 0 29.4737 0C26.1053 0 23.3263 1.17895 21.0526 3.53684C20.0421 4.54737 19.2842 5.64211 18.6947 6.82105C18.1053 5.64211 17.3474 4.54737 16.3368 3.62105C15.2421 2.52632 13.9789 1.68421 12.5474 1.01053C11.1158 0.336842 9.6 0 7.91579 0H0V23.9158H7.91579C9.51579 23.9158 11.1158 23.5789 12.5474 22.9895C13.9789 22.4 15.2421 21.4737 16.3368 20.3789C17.2632 19.4526 18.0211 18.3579 18.6105 17.1789C19.2 18.3579 19.9579 19.4526 20.9684 20.4632C23.3263 22.8211 26.1053 24 29.3895 24C32.6737 24 35.5368 22.8211 37.8105 20.4632C38.8211 19.4526 39.5789 18.4421 40.1684 17.2632V24H44.1263V9.68421L52.1263 17.6842L60.0421 9.68421V24H64.0842V17.1789C64.6737 18.3579 65.4316 19.4526 66.4421 20.4632C68.8 22.8211 71.5789 24 74.8632 24C78.1474 24 81.0105 22.8211 83.2842 20.4632C85.6421 18.1895 86.821 15.3263 86.821 12.0421C87.0737 8.67368 85.8947 5.89474 83.5368 3.53684ZM15.3263 15.0737C14.9053 16 14.3158 16.9263 13.6421 17.6C12.8842 18.3579 12.0421 18.9474 11.1158 19.2842C10.1895 19.7053 9.09474 19.8737 8 19.8737H3.95789V4.04211H7.91579C9.01053 4.04211 10.0211 4.21053 10.9474 4.63158C11.8737 5.05263 12.8 5.64211 13.4737 6.31579C14.2316 7.07368 14.8211 7.91579 15.1579 8.8421C15.5789 9.76842 15.7474 10.8632 15.7474 11.8737C15.9158 13.0526 15.7474 14.0632 15.3263 15.0737ZM35.1158 17.6C33.5158 19.1158 31.6632 19.8737 29.4737 19.8737C27.2842 19.8737 25.4316 19.1158 23.8316 17.6C22.3158 16 21.5579 14.1474 21.5579 11.9579C21.5579 9.76842 22.3158 7.91579 23.8316 6.31579C25.4316 4.71579 27.2842 3.95789 29.4737 3.95789C31.6632 3.95789 33.5158 4.71579 35.1158 6.31579C36.7158 7.91579 37.4737 9.76842 37.4737 11.9579C37.4737 14.1474 36.6316 16 35.1158 17.6ZM80.6737 17.6C79.0737 19.1158 77.221 19.8737 75.0316 19.8737C72.8421 19.8737 70.9895 19.1158 69.3895 17.6C67.8737 16 67.1158 14.1474 67.1158 11.9579C67.1158 9.76842 67.8737 7.91579 69.3895 6.31579C70.9895 4.71579 72.8421 3.95789 75.0316 3.95789C77.221 3.95789 79.0737 4.71579 80.6737 6.31579C82.2737 7.91579 83.0316 9.76842 83.0316 11.9579C83.0316 14.1474 82.2737 16 80.6737 17.6Z" fill="#99CCEE"/>
<path d="M199.663 19.9579H188.632L186.611 24H182.147L194.19 0L206.147 23.9158H201.684L199.663 19.9579ZM190.653 16H197.726L194.19 8.92632L190.653 16Z" fill="#569C3C"/>
<path d="M117.306 0H121.264V19.9579H131.79V24H117.306V0Z" fill="#F173C0"/>
<path d="M112.168 19.9579H101.137L99.1155 24H94.6523L106.61 0L118.568 23.9158H114.105L112.168 19.9579ZM103.073 16H110.147L106.61 8.92632L103.073 16Z" fill="#A82593"/>
<path d="M89.8524 16V24H85.8945V0H95.2419C97.4314 0 99.284 0.757895 100.884 2.35789C102.484 3.95789 103.242 5.81053 103.242 8C103.242 10.1895 102.484 12.0421 100.884 13.6421C99.284 15.1579 97.4314 15.9158 95.2419 15.9158H89.8524V16ZM89.8524 4.04211V12.0421H95.2419C96.3366 12.0421 97.263 11.6211 98.0208 10.8632C98.7787 10.1053 99.1998 9.17895 99.1998 8.08421C99.1998 6.98947 98.7787 6.06316 98.0208 5.22105C97.263 4.46316 96.3366 4.04211 95.2419 4.04211H89.8524Z" fill="#7A3CA3"/>
<path d="M208.211 22.7793C208.21 22.5874 208.26 22.3986 208.355 22.2319C208.451 22.0653 208.591 21.9276 208.758 21.8335C208.924 21.7346 209.113 21.6831 209.306 21.6846C209.45 21.684 209.592 21.7119 209.725 21.7667C209.858 21.8216 209.979 21.9022 210.081 22.0039C210.183 22.1057 210.263 22.2266 210.318 22.3597C210.373 22.4928 210.401 22.6354 210.4 22.7793C210.403 22.9681 210.354 23.1542 210.26 23.3179C210.168 23.4854 210.032 23.6246 209.866 23.7207C209.697 23.8216 209.503 23.8745 209.306 23.874C209.11 23.8762 208.918 23.8247 208.75 23.7251C208.584 23.628 208.446 23.4891 208.351 23.3223C208.259 23.156 208.211 22.9692 208.211 22.7793ZM208.364 22.7793C208.364 22.9453 208.408 23.1084 208.491 23.2522C208.575 23.3951 208.694 23.5142 208.837 23.5981C208.98 23.6799 209.141 23.7222 209.306 23.7207C209.472 23.7242 209.636 23.6802 209.779 23.5937C209.921 23.5125 210.039 23.3946 210.12 23.2522C210.207 23.1098 210.251 22.9458 210.247 22.7793C210.25 22.6143 210.206 22.4519 210.12 22.3108C210.059 22.2031 209.978 22.1087 209.88 22.0329C209.782 21.9571 209.67 21.9015 209.551 21.8693C209.432 21.8371 209.307 21.829 209.184 21.8454C209.062 21.8618 208.944 21.9024 208.837 21.9648C208.693 22.0464 208.573 22.1649 208.49 22.308C208.407 22.4511 208.364 22.6138 208.364 22.7793ZM209.752 22.5166C209.753 22.5904 209.73 22.6624 209.687 22.7224C209.644 22.782 209.584 22.8277 209.516 22.8537L209.862 23.4361H209.617L209.314 22.915H209.117V23.4361H208.903V22.1225H209.284C209.41 22.1112 209.535 22.1454 209.638 22.2188C209.679 22.2561 209.711 22.3025 209.731 22.3542C209.75 22.4059 209.758 22.4615 209.752 22.5166ZM209.117 22.7355H209.275C209.343 22.7383 209.41 22.7165 209.463 22.6742C209.484 22.655 209.501 22.6312 209.512 22.6046C209.522 22.5781 209.527 22.5495 209.525 22.5209C209.527 22.4917 209.523 22.4622 209.513 22.4349C209.502 22.4075 209.485 22.383 209.463 22.3633C209.404 22.3277 209.335 22.3109 209.266 22.3151H209.117V22.7355Z" fill="#569C3C"/>
</svg>
